<?xml version="1.0" encoding="UTF-8" standalone="no"?>
<svg
   xmlns:dc="http://purl.org/dc/elements/1.1/"
   xmlns:cc="http://creativecommons.org/ns#"
   xmlns:rdf="http://www.w3.org/1999/02/22-rdf-syntax-ns#"
   xmlns:svg="http://www.w3.org/2000/svg"
   xmlns="http://www.w3.org/2000/svg"
   viewBox="0 0 928.22131 209.312"
   height="209.312"
   width="928.22131"
   xml:space="preserve"
   id="svg2"
   version="1.1"><metadata
     id="metadata8"><rdf:RDF><cc:Work
         rdf:about=""><dc:format>image/svg+xml</dc:format><dc:type
           rdf:resource="http://purl.org/dc/dcmitype/StillImage" /></cc:Work></rdf:RDF></metadata><defs
     id="defs6"><clipPath
       id="clipPath42"
       clipPathUnits="userSpaceOnUse"><path
         id="path40"
         d="M 0,156.984 H 696.166 V 0 H 0 Z" /></clipPath></defs><g
     transform="matrix(1.3333333,0,0,-1.3333333,0,209.312)"
     id="g10"><g
       transform="translate(14.5788,138.4507)"
       id="g12"><path
         id="path14"
         style="fill:#e95244;fill-opacity:1;fill-rule:nonzero;stroke:none"
         d="m 0,0 h 70.308 v -12.72 -2.576 -74.542 H 39.06 v 66.402 H 0 Z" /></g><g
       transform="translate(43.8737,19.3174)"
       id="g16"><path
         id="path18"
         style="fill:#374656;fill-opacity:1;fill-rule:nonzero;stroke:none"
         d="M 0,0 H 80.074 V 15.744 18.32 89.838 H 48.825 V 23.436 L 0,23.436 Z" /></g><path
       id="path20"
       style="fill:#e95244;fill-opacity:1;fill-rule:nonzero;stroke:none"
       d="m 92.699,138.451 h 31.249 V 115.015 H 92.699 Z" /><path
       id="path22"
       style="fill:#374656;fill-opacity:1;fill-rule:nonzero;stroke:none"
       d="M 59.498,19.317 H 14.579 v 23.436 h 44.919 z" /><g
       transform="translate(8.7199,130.6387)"
       id="g24"><path
         id="path26"
         style="fill:#e95244;fill-opacity:1;fill-rule:nonzero;stroke:none"
         d="m 0,0 h -3.906 v -124.993 h 124.992 v 7.812 H 0 Z" /></g><g
       transform="translate(137.6184,152.1216)"
       id="g28"><path
         id="path30"
         style="fill:#374656;fill-opacity:1;fill-rule:nonzero;stroke:none"
         d="M 0,0 H -124.993 V -7.812 H -3.906 V -115.227 H 0 Z" /></g><g
       transform="translate(455.9826,57.9385)"
       id="g32"><path
         id="path34"
         style="fill:#e95244;fill-opacity:1;fill-rule:nonzero;stroke:none"
         d="M 0,0 H 3.897 L 8.209,-9.152 12.565,0 h 3.899 l -5.641,-11.449 5.595,-10.858 11.007,22.455 h 4.494 L 18.298,-26.16 H 14.721 L 8.255,-13.747 1.742,-26.16 H -1.835 L -15.409,0.148 h 4.448 l 11.053,-22.455 5.549,10.858 z" /></g><g
       id="g36"><g
         clip-path="url(#clipPath42)"
         id="g38"><g
           transform="translate(510.3264,42.7461)"
           id="g44"><path
             id="path46"
             style="fill:#e95244;fill-opacity:1;fill-rule:nonzero;stroke:none"
             d="M 0,0 C -0.092,0.914 -0.374,1.761 -0.848,2.539 -1.322,3.316 -1.919,3.978 -2.637,4.521 -3.355,5.064 -4.188,5.49 -5.136,5.8 c -0.948,0.308 -1.957,0.463 -3.027,0.463 -1.07,0 -2.079,-0.155 -3.026,-0.463 -0.949,-0.31 -1.782,-0.741 -2.5,-1.297 -0.719,-0.557 -1.3,-1.218 -1.743,-1.982 C -15.875,1.754 -16.143,0.914 -16.234,0 Z m -8.209,-11.338 c -1.804,0 -3.455,0.266 -4.952,0.796 -1.499,0.531 -2.783,1.254 -3.853,2.168 -1.071,0.914 -1.903,1.982 -2.5,3.205 -0.595,1.223 -0.893,2.514 -0.893,3.872 0,1.359 0.298,2.644 0.893,3.855 0.597,1.21 1.438,2.272 2.523,3.186 1.085,0.913 2.377,1.636 3.875,2.167 1.498,0.531 3.149,0.797 4.953,0.797 1.804,0 3.447,-0.271 4.931,-0.815 C -1.75,7.35 -0.489,6.627 0.551,5.726 1.59,4.823 2.393,3.773 2.958,2.576 3.523,1.377 3.807,0.136 3.807,-1.148 3.807,-1.42 3.799,-1.667 3.784,-1.89 3.769,-2.111 3.745,-2.285 3.715,-2.408 h -19.858 c 0.092,-0.963 0.368,-1.841 0.826,-2.631 0.459,-0.791 1.054,-1.47 1.789,-2.038 0.733,-0.569 1.566,-1.013 2.499,-1.334 0.932,-0.321 1.919,-0.482 2.958,-0.482 0.734,0 1.452,0.08 2.155,0.241 0.703,0.161 1.36,0.377 1.973,0.649 0.611,0.272 1.153,0.605 1.628,1 0.473,0.395 0.833,0.84 1.077,1.334 L 2.248,-6.447 C 1.85,-7.164 1.308,-7.818 0.619,-8.411 c -0.687,-0.593 -1.483,-1.106 -2.385,-1.538 -0.901,-0.432 -1.902,-0.772 -3.004,-1.019 -1.1,-0.247 -2.247,-0.37 -3.439,-0.37" /></g><g
           transform="translate(529.8176,34.2237)"
           id="g48"><path
             id="path50"
             style="fill:#e95244;fill-opacity:1;fill-rule:nonzero;stroke:none"
             d="m 0,0 c 1.192,0 2.293,0.197 3.302,0.593 1.009,0.395 1.88,0.927 2.614,1.594 0.733,0.667 1.299,1.426 1.696,2.279 0.398,0.851 0.597,1.747 0.597,2.685 0,0.94 -0.191,1.847 -0.573,2.724 -0.383,0.877 -0.917,1.649 -1.606,2.316 -0.687,0.667 -1.512,1.205 -2.476,1.612 -0.963,0.408 -2.026,0.612 -3.187,0.612 -0.856,0 -1.667,-0.124 -2.43,-0.371 -0.765,-0.247 -1.476,-0.574 -2.133,-0.981 -0.658,-0.409 -1.239,-0.884 -1.743,-1.427 -0.504,-0.544 -0.94,-1.125 -1.307,-1.742 V 4.299 C -7.094,3.681 -6.765,3.113 -6.26,2.594 -5.756,2.075 -5.159,1.624 -4.472,1.241 -3.783,0.858 -3.05,0.556 -2.271,0.334 -1.49,0.111 -0.734,0 0,0 m 1.009,-2.815 c -1.865,0 -3.563,0.37 -5.091,1.111 C -5.611,-0.963 -6.818,0 -7.705,1.187 v -3.632 h -3.577 v 27.049 h 4.036 v -11.56 c 1.009,1.26 2.247,2.272 3.715,3.038 1.468,0.766 3.179,1.148 5.135,1.148 1.652,0 3.134,-0.284 4.45,-0.851 1.313,-0.569 2.437,-1.316 3.37,-2.242 0.932,-0.927 1.651,-2.001 2.156,-3.224 0.504,-1.223 0.756,-2.477 0.756,-3.762 0,-1.358 -0.29,-2.643 -0.871,-3.853 C 10.884,2.088 10.089,1.031 9.08,0.13 8.071,-0.772 6.871,-1.488 5.48,-2.02 4.089,-2.55 2.598,-2.815 1.009,-2.815" /></g><g
           transform="translate(570.5861,44.9698)"
           id="g52"><path
             id="path54"
             style="fill:#e95244;fill-opacity:1;fill-rule:nonzero;stroke:none"
             d="M 0,0 C 0,1.482 -0.252,2.847 -0.756,4.095 -1.261,5.342 -2.01,6.41 -3.003,7.3 c -0.994,0.889 -2.21,1.587 -3.646,2.094 -1.438,0.505 -3.073,0.759 -4.908,0.759 h -7.154 v -20.38 h 7.154 c 1.865,0 3.524,0.259 4.977,0.778 1.451,0.519 2.659,1.235 3.622,2.149 0.964,0.914 1.697,1.995 2.202,3.242 C -0.252,-2.811 0,-1.458 0,0 m -22.838,-13.191 v 26.308 h 11.281 c 2.599,0 4.885,-0.346 6.857,-1.037 1.971,-0.692 3.615,-1.631 4.929,-2.816 C 1.544,8.078 2.53,6.688 3.188,5.095 3.845,3.502 4.174,1.803 4.174,0 4.174,-2.001 3.807,-3.811 3.073,-5.429 2.34,-7.047 1.284,-8.43 -0.091,-9.578 c -1.376,-1.15 -3.035,-2.038 -4.976,-2.668 -1.942,-0.63 -4.105,-0.945 -6.49,-0.945 z" /></g><g
           transform="translate(598.8361,42.7461)"
           id="g56"><path
             id="path58"
             style="fill:#e95244;fill-opacity:1;fill-rule:nonzero;stroke:none"
             d="M 0,0 C -0.092,0.914 -0.374,1.761 -0.848,2.539 -1.322,3.316 -1.919,3.978 -2.637,4.521 -3.355,5.064 -4.188,5.49 -5.136,5.8 c -0.948,0.308 -1.957,0.463 -3.027,0.463 -1.07,0 -2.079,-0.155 -3.026,-0.463 -0.949,-0.31 -1.782,-0.741 -2.5,-1.297 -0.719,-0.557 -1.3,-1.218 -1.743,-1.982 C -15.875,1.754 -16.143,0.914 -16.234,0 Z m -8.209,-11.338 c -1.804,0 -3.455,0.266 -4.952,0.796 -1.499,0.531 -2.783,1.254 -3.853,2.168 -1.071,0.914 -1.903,1.982 -2.5,3.205 -0.595,1.223 -0.893,2.514 -0.893,3.872 0,1.359 0.298,2.644 0.893,3.855 0.597,1.21 1.438,2.272 2.523,3.186 1.085,0.913 2.377,1.636 3.875,2.167 1.498,0.531 3.149,0.797 4.953,0.797 1.804,0 3.447,-0.271 4.931,-0.815 C -1.75,7.35 -0.489,6.627 0.551,5.726 1.59,4.823 2.393,3.773 2.958,2.576 3.523,1.377 3.807,0.136 3.807,-1.148 3.807,-1.42 3.799,-1.667 3.784,-1.89 3.769,-2.111 3.745,-2.285 3.715,-2.408 h -19.858 c 0.092,-0.963 0.368,-1.841 0.826,-2.631 0.459,-0.791 1.054,-1.47 1.789,-2.038 0.733,-0.569 1.566,-1.013 2.499,-1.334 0.932,-0.321 1.919,-0.482 2.958,-0.482 0.734,0 1.452,0.08 2.155,0.241 0.703,0.161 1.36,0.377 1.973,0.649 0.611,0.272 1.153,0.605 1.628,1 0.473,0.395 0.833,0.84 1.077,1.334 L 2.248,-6.447 C 1.85,-7.164 1.308,-7.818 0.619,-8.411 c -0.687,-0.593 -1.483,-1.106 -2.385,-1.538 -0.901,-0.432 -1.902,-0.772 -3.004,-1.019 -1.1,-0.247 -2.247,-0.37 -3.439,-0.37" /></g><g
           transform="translate(615.5285,31.4082)"
           id="g60"><path
             id="path62"
             style="fill:#e95244;fill-opacity:1;fill-rule:nonzero;stroke:none"
             d="m 0,0 c -1.926,0 -3.822,0.24 -5.687,0.722 -1.865,0.482 -3.47,1.179 -4.815,2.093 l 1.743,2.187 c 1.405,-0.865 2.813,-1.514 4.219,-1.945 1.406,-0.433 2.89,-0.649 4.448,-0.649 1.743,0 3.126,0.278 4.151,0.834 1.024,0.556 1.536,1.34 1.536,2.353 0,0.468 -0.137,0.871 -0.412,1.204 C 4.907,7.133 4.494,7.423 3.944,7.67 3.394,7.917 2.69,8.139 1.835,8.337 c -0.856,0.197 -1.851,0.407 -2.981,0.63 -1.438,0.297 -2.676,0.58 -3.715,0.852 -1.039,0.272 -1.896,0.593 -2.569,0.963 -0.673,0.371 -1.162,0.816 -1.466,1.334 -0.307,0.519 -0.459,1.161 -0.459,1.927 0,0.964 0.236,1.822 0.71,2.575 0.474,0.754 1.124,1.384 1.95,1.891 0.825,0.506 1.796,0.888 2.912,1.148 1.115,0.259 2.315,0.389 3.599,0.389 1.804,0 3.486,-0.234 5.045,-0.704 1.56,-0.47 2.874,-1.087 3.945,-1.853 L 6.971,15.525 c -1.009,0.716 -2.14,1.254 -3.394,1.613 -1.254,0.357 -2.538,0.537 -3.852,0.537 -1.467,0 -2.713,-0.254 -3.738,-0.76 -1.024,-0.507 -1.536,-1.315 -1.536,-2.427 0,-0.445 0.099,-0.815 0.298,-1.112 0.198,-0.296 0.527,-0.556 0.986,-0.777 0.458,-0.223 1.047,-0.421 1.766,-0.594 0.718,-0.173 1.582,-0.359 2.591,-0.556 1.59,-0.296 2.973,-0.598 4.15,-0.907 C 5.419,10.232 6.397,9.868 7.178,9.448 7.957,9.028 8.537,8.534 8.92,7.967 9.302,7.397 9.493,6.706 9.493,5.892 9.493,4.088 8.637,2.654 6.925,1.593 5.213,0.53 2.904,0 0,0" /></g><path
           id="path64"
           style="fill:#e95244;fill-opacity:1;fill-rule:nonzero;stroke:none"
           d="m 629.654,51.121 h 4.036 V 31.778 h -4.036 z m 0,7.707 h 4.036 v -4.076 h -4.036 z" /><g
           transform="translate(650.841,34.2237)"
           id="g66"><path
             id="path68"
             style="fill:#e95244;fill-opacity:1;fill-rule:nonzero;stroke:none"
             d="m 0,0 c 0.855,0 1.682,0.124 2.477,0.371 0.794,0.246 1.528,0.574 2.201,0.982 0.673,0.408 1.238,0.871 1.697,1.389 0.458,0.519 0.764,1.05 0.917,1.594 V 9.894 C 6.955,10.561 6.52,11.166 5.985,11.71 5.45,12.253 4.846,12.729 4.174,13.136 c -0.673,0.408 -1.4,0.722 -2.179,0.945 -0.779,0.223 -1.567,0.334 -2.361,0.334 -1.224,0 -2.317,-0.211 -3.28,-0.631 C -4.608,13.364 -5.427,12.809 -6.1,12.117 -6.772,11.426 -7.292,10.641 -7.658,9.765 -8.025,8.887 -8.209,8.004 -8.209,7.115 -8.209,6.151 -7.995,5.237 -7.566,4.373 -7.139,3.508 -6.558,2.755 -5.824,2.112 -5.09,1.47 -4.227,0.957 -3.233,0.574 -2.24,0.191 -1.162,0 0,0 m -1.238,-2.668 c -1.621,0 -3.112,0.272 -4.471,0.815 -1.361,0.543 -2.53,1.273 -3.509,2.187 -0.978,0.913 -1.735,1.964 -2.27,3.149 -0.535,1.186 -0.802,2.421 -0.802,3.705 0,1.359 0.267,2.65 0.802,3.874 0.535,1.222 1.292,2.291 2.27,3.205 0.979,0.913 2.148,1.635 3.509,2.167 1.359,0.531 2.866,0.796 4.517,0.796 2.018,0 3.76,-0.395 5.228,-1.185 1.468,-0.791 2.706,-1.791 3.715,-3.001 v 3.853 h 3.577 v -19.12 c 0,-1.383 -0.321,-2.599 -0.964,-3.65 -0.641,-1.05 -1.512,-1.933 -2.613,-2.649 -1.101,-0.716 -2.393,-1.26 -3.876,-1.63 -1.482,-0.371 -3.065,-0.557 -4.746,-0.557 -2.722,0 -4.93,0.377 -6.627,1.131 -1.697,0.754 -3.111,1.797 -4.242,3.131 l 2.339,1.668 c 0.947,-1.137 2.171,-1.989 3.669,-2.558 1.498,-0.567 3.118,-0.851 4.861,-0.851 1.1,0 2.147,0.124 3.142,0.37 0.993,0.247 1.857,0.618 2.59,1.111 0.735,0.495 1.323,1.112 1.766,1.853 0.443,0.742 0.665,1.619 0.665,2.631 v 3.41 C 6.833,0.593 6.29,0.056 5.664,-0.426 5.037,-0.907 4.357,-1.315 3.623,-1.648 2.89,-1.982 2.109,-2.235 1.284,-2.408 0.459,-2.581 -0.383,-2.668 -1.238,-2.668" /></g><g
           transform="translate(689.2726,31.7784)"
           id="g70"><path
             id="path72"
             style="fill:#e95244;fill-opacity:1;fill-rule:nonzero;stroke:none"
             d="m 0,0 h -4.036 v 10.82 c 0,2.076 -0.39,3.581 -1.169,4.521 -0.78,0.938 -1.965,1.408 -3.555,1.408 -0.825,0 -1.65,-0.13 -2.476,-0.39 -0.826,-0.258 -1.605,-0.611 -2.339,-1.055 -0.734,-0.445 -1.376,-0.977 -1.926,-1.594 -0.551,-0.617 -0.963,-1.297 -1.238,-2.038 V 0 h -4.036 v 19.343 h 3.669 v -4.151 c 0.947,1.359 2.316,2.446 4.104,3.261 1.789,0.816 3.738,1.223 5.848,1.223 1.376,0 2.522,-0.203 3.439,-0.612 0.917,-0.407 1.652,-0.975 2.201,-1.704 0.551,-0.729 0.941,-1.588 1.17,-2.575 C -0.115,13.797 0,12.722 0,11.562 Z" /></g><g
           transform="translate(206.759,123.1807)"
           id="g74"><path
             id="path76"
             style="fill:#374656;fill-opacity:1;fill-rule:nonzero;stroke:none"
             d="m 0,0 v -7.957 h -19.739 v -48.239 h -7.958 V -7.957 H -47.819 L -47.78,0 Z" /></g><path
           id="path78"
           style="fill:#374656;fill-opacity:1;fill-rule:nonzero;stroke:none"
           d="m 227.57,67.023 h -7.957 v 56.197 h 7.957 z" /><g
           transform="translate(237.4011,67.0606)"
           id="g80"><path
             id="path82"
             style="fill:#374656;fill-opacity:1;fill-rule:nonzero;stroke:none"
             d="m 0,0 27.505,56.005 h 6.083 L 60.864,-0.038 H 51.912 L 46.174,11.974 H 21.041 l 3.71,7.651 H 42.463 L 30.451,43.496 9.181,0 Z" /></g><g
           transform="translate(353.7351,115.2237)"
           id="g84"><path
             id="path86"
             style="fill:#374656;fill-opacity:1;fill-rule:nonzero;stroke:none"
             d="m 0,0 h -34.162 c -4.004,-0.051 -6.019,-1.989 -6.044,-5.814 v -28.348 c 0.051,-3.978 1.976,-5.981 5.776,-6.006 h 21.27 c 3.315,0.025 5.012,1.785 5.088,5.28 v 13.083 h -27.849 v 7.842 H 0.076 v -21.996 c 0,-8.162 -4.118,-12.242 -12.356,-12.242 h -23.603 c -8.239,0.076 -12.344,4.067 -12.319,11.973 l -0.038,32.249 c 0,7.983 4.017,11.975 12.051,11.975 L 0,7.996 Z" /></g><g
           transform="translate(373.7795,109.4854)"
           id="g88"><path
             id="path90"
             style="fill:#374656;fill-opacity:1;fill-rule:nonzero;stroke:none"
             d="m 0,0 v -29.074 c 0,-3.571 1.772,-5.356 5.317,-5.356 h 21.538 c 3.52,0 5.28,1.76 5.28,5.28 V 0.344 c 0,3.596 -1.798,5.394 -5.395,5.394 H 5.395 C 1.798,5.738 0,3.826 0,0 m 4.018,13.772 h 24.1 c 8.059,0 12.088,-3.979 12.088,-11.936 v -32.211 c -0.025,-8.059 -4.055,-12.088 -12.088,-12.088 h -24.1 c -8.035,0 -12.051,4.017 -12.051,12.05 V 1.722 c 0,8.033 4.016,12.05 12.051,12.05" /></g><g
           transform="translate(474.7697,80.2325)"
           id="g92"><path
             id="path94"
             style="fill:#374656;fill-opacity:1;fill-rule:nonzero;stroke:none"
             d="M 0,0 V 42.501 H 7.995 V -1.645 C 7.97,-9.679 3.94,-13.695 -4.094,-13.695 h -32.018 l -0.039,7.957 H -5.776 C -1.977,-5.687 -0.052,-3.774 0,0" /></g><g
           transform="translate(502.8108,80.0796)"
           id="g96"><path
             id="path98"
             style="fill:#374656;fill-opacity:1;fill-rule:nonzero;stroke:none"
             d="M 0,0 C 0,-3.672 1.785,-5.509 5.356,-5.509 H 26.74 c 3.597,0 5.395,1.721 5.395,5.164 v 42.999 h 8.416 V -1.492 c -0.255,-8.034 -4.4,-12.05 -12.433,-12.05 h -24.1 c -8.035,0 -12.051,4.016 -12.051,12.05 V 42.73 l 8.033,0 z" /></g><g
           transform="translate(595.2346,79.7349)"
           id="g100"><path
             id="path102"
             style="fill:#374656;fill-opacity:1;fill-rule:nonzero;stroke:none"
             d="M 0,0 V 43.037 H 7.995 V -13.16 H -0.076 L -31.943,29.418 V -13.16 h -8.263 v 56.197 h 7.612 z" /></g><path
           id="path104"
           style="fill:#374656;fill-opacity:1;fill-rule:nonzero;stroke:none"
           d="m 625.724,66.537 h -7.957 v 56.197 h 7.957 z" /><g
           transform="translate(647.4142,109)"
           id="g106"><path
             id="path108"
             style="fill:#374656;fill-opacity:1;fill-rule:nonzero;stroke:none"
             d="m 0,0 v -29.074 c 0,-3.571 1.772,-5.356 5.317,-5.356 h 21.538 c 3.52,0 5.28,1.76 5.28,5.28 V 0.344 c 0,3.596 -1.798,5.394 -5.395,5.394 H 5.395 C 1.798,5.738 0,3.826 0,0 m 4.018,13.772 h 24.1 c 8.059,0 12.088,-3.979 12.088,-11.936 v -32.211 c -0.025,-8.059 -4.055,-12.088 -12.088,-12.088 h -24.1 c -8.035,0 -12.051,4.017 -12.051,12.05 V 1.722 c 0,8.033 4.016,12.05 12.051,12.05" /></g></g></g></g></svg>